# xmcd CD database file
#
# Track frame offsets:
#	150
#	31752
#	54458
#	80632
#	115631
#	151192
#	173577
#	216695
#	240766
#
# Disc length: 3619 seconds
#
# Revision: 0
# Processed by: cddbd v1.5PL3 Copyright (c) Steve Scherf et al.
# Submitted via: CDex 1.51
#
DISCID=650e2109
DTITLE=Lester Butler Tibute Band - So Lowdown Tour 200
DYEAR=2002
DGENRE=Blues
TTITLE0=Blackwater Roll
TTITLE1=So Lowdown
TTITLE2=Taildragger
TTITLE3=Sweet tooth
TTITLE4=Devil woman
TTITLE5=Shake 'em on down
TTITLE6=Cross your heart
TTITLE7=Down in New Orleans
TTITLE8=Driftin'
EXTD=YEAR: 2002
EXTT0=
EXTT1=
EXTT2=
EXTT3=
EXTT4=
EXTT5=
EXTT6=
EXTT7=
EXTT8=
PLAYORDER=
